<svg width="1113" height="1519" viewBox="0 0 1113 1519" fill="none" xmlns="http://www.w3.org/2000/svg">
<path d="M869.911 1318.93C866.65 1296.89 829.605 1219.21 811.49 1183.13C723.05 1108.34 671.806 1183.13 652.207 1195.63C636.528 1205.62 645.674 1320.98 652.207 1377.41C652.336 1378.47 653.891 1391.49 659.074 1435.03C665.552 1489.46 677.601 1484.49 687.577 1487.3C697.554 1490.12 732.558 1490.67 770.741 1480.48C802.435 1472.03 833.228 1469.5 859.042 1438.99C884.856 1408.48 873.987 1346.48 869.911 1318.93Z" fill="url(#paint0_linear_31812_2331)"/>
<path d="M852.562 1439.1C807.19 1422.75 716.89 1445.91 677.412 1459.54C658.729 1484.81 669.627 1498.56 677.412 1502.27C830.876 1533.86 894.264 1511.56 897.6 1502.27C900.937 1492.98 909.277 1459.54 852.562 1439.1Z" fill="#FA7A74"/>
<path d="M248.809 1320.02C252.07 1299.77 263.686 1224.07 281.801 1190.92C370.241 1122.22 446.915 1195.27 466.513 1206.75C482.192 1215.93 488.972 1326.27 482.439 1378.1C482.309 1379.08 477.858 1392.33 464.727 1429.61C447.519 1478.47 441.119 1472.11 431.143 1474.69C421.166 1477.28 315.788 1465.43 281.8 1450.54C259.678 1440.85 247.73 1435.54 262.483 1432.7C236.669 1404.68 244.733 1345.33 248.809 1320.02Z" fill="url(#paint1_linear_31812_2331)"/>
<path d="M260.378 1419.27C305.75 1404.91 396.05 1425.25 435.529 1437.21C454.212 1459.4 443.313 1471.47 435.529 1474.73C282.064 1502.46 218.676 1482.88 215.34 1474.73C212.004 1466.57 203.663 1437.21 260.378 1419.27Z" fill="#EB6E90"/>
<path d="M320.496 1104.6C314.219 1128.29 311.581 1153.06 313.958 1177.45C327.121 1312.57 479.381 1417.55 624.056 1388.85C716.002 1370.6 833.753 1290.43 831.553 1174.1C830.428 1114.62 811.75 1056.98 787.933 1002.47C723.549 855.098 705.435 777.848 548.942 790.335C374.554 804.251 380.606 877.755 320.496 1104.6Z" fill="#F16677"/>
<path d="M325.227 1093.4C318.95 1117.09 316.313 1141.85 318.689 1166.24C331.852 1301.36 449.317 1388.85 589.996 1388.85C671.607 1388.85 838.484 1279.23 836.284 1162.9C835.159 1103.42 816.481 1045.78 792.664 991.265C728.28 843.896 710.167 766.646 553.673 779.133C379.286 793.049 385.337 866.553 325.227 1093.4Z" fill="url(#paint2_linear_31812_2331)"/>
<path d="M401.9 815C422.929 781.76 504.338 732.727 476.551 728.182C347.251 718.024 184.686 967.496 183.87 1066.49C182.73 1204.77 335.757 1244.83 349.575 1187.47C349.575 1187.47 373.953 885.952 427.019 874.309C478.111 831.505 393.185 828.776 401.9 815Z" fill="#F16677"/>
<path d="M535.781 782.908C556.549 749.58 507.706 732.673 480.688 728.385C354.873 719.392 184.147 967.215 189.553 1064.89C197.187 1202.84 336.131 1238.86 345.607 1172.02C345.607 1172.02 372.068 889.417 423.843 877.343C473.969 834.216 527.174 796.72 535.781 782.908Z" fill="url(#paint3_linear_31812_2331)"/>
<path d="M774.985 869.88C773.404 830.454 730.519 750.437 754.979 758.348C863.721 805.18 879.408 1103.13 834.379 1193.73C771.475 1320.29 629.838 1290.43 645.19 1232.14C645.19 1232.14 764.73 946.687 727.399 913.052C706.037 851.865 775.64 886.22 774.985 869.88Z" fill="#F16677"/>
<path d="M682.056 782.543C680.724 743.151 727.834 748.927 751.555 756.738C856.956 803.12 879.971 1103.11 830.541 1189.81C760.729 1312.27 632.291 1284.83 655.516 1219.78C655.516 1219.78 764.647 950.664 728.554 917.196C708.119 856.134 682.608 798.869 682.056 782.543Z" fill="url(#paint4_linear_31812_2331)"/>
<path d="M406.243 860.035C536.335 998.796 738.214 910.687 822.891 849.287C759.516 632.293 443.08 847.467 432.583 848.831C422.087 850.194 410.65 856.868 406.243 860.035Z" fill="#F9746E"/>
<circle cx="88.5282" cy="88.5282" r="88.5282" transform="matrix(-0.904184 0.427143 0.427143 0.904184 338.585 204.547)" fill="black"/>
<circle cx="88.5282" cy="88.5282" r="88.5282" transform="matrix(-0.904184 0.427143 0.427143 0.904184 338.585 204.547)" fill="url(#paint5_linear_31812_2331)"/>
<circle cx="88.5282" cy="88.5282" r="88.5282" transform="matrix(-0.904184 0.427143 0.427143 0.904184 337.91 200.86)" fill="black"/>
<circle cx="88.5282" cy="88.5282" r="88.5282" transform="matrix(-0.904184 0.427143 0.427143 0.904184 337.91 200.86)" fill="url(#paint6_linear_31812_2331)"/>
<path d="M349.55 321.078C346.757 298.921 328.03 281.605 305.047 281.259C279.881 280.88 259.188 300.958 258.809 326.124C258.491 347.291 272.656 365.298 292.16 370.718L349.55 321.078Z" fill="#F16677"/>
<path d="M723.08 340.378C736.998 388.253 787.091 415.78 834.966 401.862C882.841 387.944 910.368 337.851 896.45 289.976C882.532 242.101 832.439 214.574 784.564 228.492C736.689 242.41 709.162 292.503 723.08 340.378Z" fill="black"/>
<path d="M723.08 340.378C736.998 388.253 787.091 415.78 834.966 401.862C882.841 387.944 910.368 337.851 896.45 289.976C882.532 242.101 832.439 214.574 784.564 228.492C736.689 242.41 709.162 292.503 723.08 340.378Z" fill="url(#paint7_linear_31812_2331)"/>
<path d="M822.762 368.713C844.324 361.387 857.788 339.134 853.429 316.104C848.655 290.887 824.361 274.326 799.143 279.1C777.933 283.115 762.846 300.952 761.424 321.545L822.762 368.713Z" fill="#F16677"/>
<path d="M854.133 775.246C592.044 1009.6 250.651 811.702 215.593 673.657C165.784 688.751 184.468 652.285 200.036 632.166C163.127 643.002 200.218 599.87 212.836 588.135C222.931 578.746 220.968 560.165 223.985 549.785C269.231 388.875 329.603 336.243 378.189 301.075C417.058 272.941 479.955 265.964 506.544 265.992C521.992 255.079 511.912 247.527 514.802 237.585C517.115 229.631 537.421 247.755 547.285 257.811C547.208 247.519 548.575 222.757 554.662 206.042C560.749 189.327 580.109 229.356 589.027 251.461C591.347 247.001 598.463 236.952 608.368 232.438C620.75 226.795 620.155 260.51 631.474 263.801L673.921 276.141C871.91 350.953 909.745 547.005 903.914 635.679C949.56 698.242 922.18 699.524 902.785 692.345C929.708 743.303 906.57 739.144 891.636 730.695C889.081 781.709 865.569 781.652 854.133 775.246Z" fill="url(#paint8_linear_31812_2331)"/>
<path d="M854.881 771.098C593.279 1004.2 251.974 806.887 216.808 669.382C167.061 684.362 185.689 648.068 201.222 628.048C164.358 638.801 201.37 595.888 213.965 584.214C224.041 574.876 222.06 556.37 225.064 546.037C270.102 385.844 330.393 333.389 378.897 298.418C417.701 270.441 480.531 263.558 507.095 263.613C522.518 252.762 512.439 245.231 515.317 235.333C517.619 227.415 537.924 245.484 547.789 255.508C547.702 245.259 549.043 220.601 555.107 203.962C561.171 187.323 580.553 227.206 589.486 249.227C591.799 244.788 598.898 234.788 608.789 230.303C621.154 224.697 620.594 258.271 631.906 261.559L674.326 273.892C872.206 348.594 910.207 543.867 904.472 632.165C950.14 694.514 922.787 695.763 903.402 688.593C930.353 739.366 907.232 735.201 892.303 726.771C889.803 777.57 866.313 777.489 854.881 771.098Z" fill="url(#paint9_linear_31812_2331)"/>
<ellipse cx="119.804" cy="103.23" rx="119.804" ry="103.23" transform="matrix(-0.986124 0.166013 0.166013 0.986124 655.184 530.805)" fill="#FDCB99" fill-opacity="0.38"/>
<ellipse cx="66.2878" cy="40.9179" rx="66.2878" ry="40.9179" transform="matrix(-0.925402 -0.378988 -0.378988 0.925402 433.316 634.997)" fill="#F9746E"/>
<ellipse cx="66.2878" cy="40.9179" rx="66.2878" ry="40.9179" transform="matrix(-0.897851 0.4403 0.4403 0.897851 807.196 563.538)" fill="#F9746E"/>
<path d="M551.139 638.614C522.666 639.472 490.139 616.19 488.007 593.348C485.876 570.505 509.684 557.905 546.303 554.488L547.059 554.418C583.715 550.997 609.365 558.149 611.574 581.818C613.782 605.488 586.085 633.586 557.907 637.983L551.139 638.614Z" fill="#C15A55"/>
<path d="M719.348 532.967C714.918 565.523 695.471 574.924 671.42 573.262C647.369 571.601 631.74 550.501 633.455 525.662C635.171 500.822 656.06 482.033 680.111 483.694C704.162 485.355 721.064 508.127 719.348 532.967Z" fill="url(#paint10_linear_31812_2331)"/>
<path d="M469.367 547.555C465.286 579.346 441.042 589.783 419.94 588.852C398.838 587.922 382.089 566.654 383.542 542.436C384.995 518.219 405.651 499.446 429.679 500.505C453.708 501.564 470.82 523.337 469.367 547.555Z" fill="url(#paint11_linear_31812_2331)"/>
<path d="M704.526 536.243C700.838 563.352 684.643 571.18 664.616 569.796C644.589 568.413 631.574 550.843 633.003 530.159C634.432 509.475 651.826 493.829 671.853 495.213C691.88 496.596 705.955 515.558 704.526 536.243Z" fill="url(#paint12_linear_31812_2331)"/>
<path d="M469.797 550.372C466.398 576.845 446.21 585.535 428.638 584.761C411.066 583.986 397.119 566.276 398.329 546.11C399.539 525.944 416.74 510.311 436.748 511.193C456.757 512.075 471.007 530.206 469.797 550.372Z" fill="url(#paint13_linear_31812_2331)"/>
<path d="M421.832 433.771C394.821 439.802 376.293 454.327 368.636 460.967C355.24 467.197 345.804 474.378 330.626 460.169C315.447 445.959 325.645 423.601 336.011 414.269C346.377 404.937 386.133 385.804 402.992 383.119C435.717 382.938 455.596 426.232 421.832 433.771Z" fill="#F16677"/>
<path d="M418.396 428.658C391.982 434.332 373.87 448.03 366.387 454.292C353.289 460.163 344.186 469.607 329.331 456.184C314.476 442.76 324.312 418.99 334.444 410.188C344.576 401.387 383.445 383.355 399.933 380.832C431.94 380.685 451.414 421.567 418.396 428.658Z" fill="#F9746E"/>
<path d="M664.313 416.012C691.956 417.361 712.685 428.524 721.359 433.765C735.62 437.625 746.14 443.097 758.68 426.513C771.22 409.93 757.369 389.632 745.567 382.198C733.764 374.765 691.334 362.673 674.263 362.894C641.984 368.282 629.758 414.326 664.313 416.012Z" fill="#F16677"/>
<path d="M664.903 407.7C691.898 408.799 712.075 419.217 720.515 424.115C734.42 427.673 744.997 435.431 757.352 419.676C769.708 403.921 755.972 382.171 744.491 375.221C733.01 368.271 691.639 357.112 674.963 357.431C643.397 362.729 631.16 406.328 664.903 407.7Z" fill="#F9746E"/>
<ellipse cx="10.6047" cy="6.91984" rx="10.6047" ry="6.91984" transform="matrix(-0.992233 0.124395 0.124395 0.992233 564.145 676.489)" fill="#C15A55"/>
<defs>
<linearGradient id="paint0_linear_31812_2331" x1="863.652" y1="1500.91" x2="823.014" y2="1186.68" gradientUnits="userSpaceOnUse">
<stop offset="0.0426162" stop-color="#F9746E"/>
<stop offset="0.528846" stop-color="#FB837C"/>
<stop offset="1" stop-color="#FD706A"/>
</linearGradient>
<linearGradient id="paint1_linear_31812_2331" x1="331.01" y1="1493.25" x2="332.688" y2="1280.28" gradientUnits="userSpaceOnUse">
<stop offset="0.0426162" stop-color="#E4689C"/>
<stop offset="0.528846" stop-color="#EF718A"/>
<stop offset="1" stop-color="#FA7E72"/>
</linearGradient>
<linearGradient id="paint2_linear_31812_2331" x1="557.809" y1="1227.29" x2="546.667" y2="934.444" gradientUnits="userSpaceOnUse">
<stop stop-color="#F9746E"/>
<stop offset="0.603435" stop-color="#FD8E78"/>
<stop offset="1" stop-color="#FD9068"/>
</linearGradient>
<linearGradient id="paint3_linear_31812_2331" x1="74.2637" y1="998.67" x2="452.743" y2="819.527" gradientUnits="userSpaceOnUse">
<stop stop-color="#F9746E"/>
<stop offset="0.507388" stop-color="#FD956F"/>
<stop offset="1" stop-color="#FD9069"/>
</linearGradient>
<linearGradient id="paint4_linear_31812_2331" x1="953.882" y1="1179.46" x2="701.042" y2="877.89" gradientUnits="userSpaceOnUse">
<stop stop-color="#F9746E"/>
<stop offset="0.507388" stop-color="#FD956F"/>
<stop offset="1" stop-color="#FD9069"/>
</linearGradient>
<linearGradient id="paint5_linear_31812_2331" x1="108.251" y1="5.42029e-07" x2="59.9806" y2="100.919" gradientUnits="userSpaceOnUse">
<stop stop-color="#F16677"/>
</linearGradient>
<linearGradient id="paint6_linear_31812_2331" x1="108.251" y1="5.42029e-07" x2="59.9806" y2="100.919" gradientUnits="userSpaceOnUse">
<stop stop-color="#F77870"/>
<stop offset="1" stop-color="#FD9276"/>
</linearGradient>
<linearGradient id="paint7_linear_31812_2331" x1="869.517" y1="233.305" x2="817.068" y2="340.298" gradientUnits="userSpaceOnUse">
<stop offset="0.00961538" stop-color="#F9746E"/>
<stop offset="1" stop-color="#FD9177"/>
</linearGradient>
<linearGradient id="paint8_linear_31812_2331" x1="748.296" y1="837.427" x2="745.575" y2="834.051" gradientUnits="userSpaceOnUse">
<stop offset="1" stop-color="#F67970"/>
</linearGradient>
<linearGradient id="paint9_linear_31812_2331" x1="605.1" y1="755.689" x2="616.395" y2="866.34" gradientUnits="userSpaceOnUse">
<stop stop-color="#FD9276"/>
<stop offset="1" stop-color="#F67970"/>
</linearGradient>
<linearGradient id="paint10_linear_31812_2331" x1="679.556" y1="483.656" x2="673.356" y2="573.396" gradientUnits="userSpaceOnUse">
<stop stop-color="white"/>
</linearGradient>
<linearGradient id="paint11_linear_31812_2331" x1="429.125" y1="500.48" x2="425.266" y2="588.034" gradientUnits="userSpaceOnUse">
<stop stop-color="white"/>
</linearGradient>
<linearGradient id="paint12_linear_31812_2331" x1="668.235" y1="495.182" x2="663.302" y2="571.645" gradientUnits="userSpaceOnUse">
<stop stop-color="#9E423D"/>
</linearGradient>
<linearGradient id="paint13_linear_31812_2331" x1="449.591" y1="515.274" x2="446.377" y2="588.18" gradientUnits="userSpaceOnUse">
<stop stop-color="#9E423D"/>
</linearGradient>
</defs>
</svg>
