<svg width="531" height="112" viewBox="0 0 531 112" fill="none" xmlns="http://www.w3.org/2000/svg">
<path d="M59.2358 111.18C47.9963 111.18 37.8706 108.851 28.8587 104.193C19.8468 99.4343 12.7588 92.8526 7.59467 84.4483C2.53182 75.9427 0.00038892 66.3233 0.00038892 55.59C0.00038892 44.8567 2.53182 35.2879 7.59467 26.8836C12.7588 18.378 19.8468 11.7963 28.8587 7.13845C37.8706 2.37937 47.9963 -0.00017267 59.2358 -0.00017267C69.564 -0.00017267 78.7784 1.82246 86.879 5.46771C94.9796 9.11297 101.663 14.3783 106.928 21.2638L84.297 41.4646C77.7153 33.1615 69.9691 29.01 61.0584 29.01C53.5654 29.01 47.5406 31.4402 42.984 36.3005C38.4275 41.0596 36.1492 47.4894 36.1492 55.59C36.1492 63.6906 38.4275 70.171 42.984 75.0314C47.5406 79.7905 53.5654 82.17 61.0584 82.17C69.9691 82.17 77.7153 78.0185 84.297 69.7154L106.928 89.9162C101.663 96.8017 94.9796 102.067 86.879 105.712C78.7784 109.358 69.564 111.18 59.2358 111.18ZM168.767 -0.00017267C179.095 -0.00017267 188.208 2.0756 196.106 6.22714C204.004 10.2774 210.13 16.2516 214.484 24.1497C218.94 31.9465 221.167 41.2621 221.167 52.0966V108.75H185.322V87.3341H151.604V108.75H116.366V52.0966C116.366 41.2621 118.543 31.9465 122.897 24.1497C127.353 16.2516 133.529 10.2774 141.427 6.22714C149.325 2.0756 158.439 -0.00017267 168.767 -0.00017267ZM185.322 60.2985V49.0589C185.322 42.4772 183.753 37.5156 180.614 34.1741C177.576 30.7314 173.526 29.01 168.463 29.01C163.4 29.01 159.299 30.7314 156.16 34.1741C153.123 37.5156 151.604 42.4772 151.604 49.0589V60.2985H185.322ZM237.57 2.42999H289.97C301.817 2.42999 312.247 4.60703 321.259 8.96109C330.372 13.2139 337.409 19.3399 342.371 27.3393C347.434 35.3386 349.965 44.7555 349.965 55.59C349.965 66.4245 347.434 75.8414 342.371 83.8407C337.409 91.8401 330.372 98.0167 321.259 102.371C312.247 106.624 301.817 108.75 289.97 108.75H237.57V2.42999ZM288.452 80.803C296.147 80.803 302.273 78.626 306.83 74.2719C311.488 69.8166 313.816 63.5893 313.816 55.59C313.816 47.5907 311.488 41.414 306.83 37.0599C302.273 32.6046 296.147 30.377 288.452 30.377H273.415V80.803H288.452ZM465.728 2.42999V108.75H430.946V97.3586C423.757 106.573 413.935 111.18 401.481 111.18C389.026 111.18 379.356 107.079 372.47 98.8774C365.585 90.6756 362.142 79.031 362.142 63.9437V2.42999H397.987V62.8805C397.987 69.361 399.354 74.2213 402.088 77.4615C404.822 80.6005 408.619 82.17 413.48 82.17C418.239 82.17 422.137 80.4486 425.175 77.0059C428.314 73.4619 429.883 68.3484 429.883 61.6654V2.42999H465.728ZM503.652 65.9804C498.635 65.9804 494.052 64.7772 489.905 62.3708C485.809 59.9644 482.558 56.6876 480.152 52.5404C477.796 48.3932 476.619 43.8364 476.619 38.87C476.619 33.9036 477.796 29.3468 480.152 25.1996C482.558 21.0524 485.835 17.7756 489.982 15.3692C494.129 12.9628 498.737 11.7596 503.806 11.7596C508.875 11.7596 513.457 12.9372 517.553 15.2924C521.7 17.6476 524.952 20.8988 527.307 25.046C529.662 29.142 530.84 33.6988 530.84 38.7164C530.84 43.734 529.636 48.342 527.23 52.5404C524.824 56.6876 521.547 59.9644 517.4 62.3708C513.252 64.7772 508.67 65.9804 503.652 65.9804ZM503.652 59.222C507.441 59.222 510.846 58.326 513.867 56.534C516.939 54.742 519.32 52.2844 521.009 49.1612C522.75 46.038 523.62 42.5564 523.62 38.7164C523.62 34.8764 522.776 31.4204 521.086 28.3484C519.396 25.2764 517.041 22.87 514.02 21.1292C511.051 19.3884 507.646 18.518 503.806 18.518C499.966 18.518 496.536 19.414 493.515 21.206C490.494 22.998 488.113 25.4556 486.372 28.5788C484.683 31.6508 483.838 35.0812 483.838 38.87C483.838 42.6588 484.683 46.1148 486.372 49.238C488.113 52.31 490.468 54.742 493.438 56.534C496.459 58.326 499.864 59.222 503.652 59.222ZM504.881 54.0764C501.707 54.0764 498.84 53.4364 496.28 52.1564C493.771 50.8252 491.8 49.0076 490.366 46.7036C488.984 44.3996 488.292 41.7884 488.292 38.87C488.292 35.9516 488.984 33.3404 490.366 31.0364C491.8 28.7324 493.771 26.9404 496.28 25.6604C498.84 24.3292 501.707 23.6636 504.881 23.6636C508.26 23.6636 511.179 24.4316 513.636 25.9676C516.094 27.5036 517.784 29.6284 518.705 32.342L508.875 37.334C507.953 35.286 506.596 34.262 504.804 34.262C503.729 34.262 502.808 34.6716 502.04 35.4908C501.272 36.31 500.888 37.4364 500.888 38.87C500.888 40.3036 501.272 41.43 502.04 42.2492C502.808 43.0684 503.729 43.478 504.804 43.478C506.596 43.478 507.953 42.454 508.875 40.406L518.705 45.398C517.784 48.1116 516.094 50.2364 513.636 51.7724C511.179 53.3084 508.26 54.0764 504.881 54.0764Z" fill="black"/>
</svg>
