<svg width="974" height="725" viewBox="0 0 974 725" fill="none" xmlns="http://www.w3.org/2000/svg">
<g filter="url(#filter0_f_31839_8383)">
<path d="M122.273 245.583L271.816 232.928V530.827H123.421L122.273 245.583Z" fill="#F8B942" fill-opacity="0.4"/>
</g>
<g filter="url(#filter1_f_31839_8383)">
<rect x="306.871" y="398.824" width="136.727" height="225.858" fill="#FF8473" fill-opacity="0.4"/>
</g>
<g filter="url(#filter2_f_31839_8383)">
<path d="M546.852 418.747L677.378 409.505V590.943H549.546L546.852 418.747Z" fill="#64BBF1" fill-opacity="0.4"/>
</g>
<g filter="url(#filter3_f_31839_8383)">
<path d="M394.681 340.551C373.302 341.656 357.861 353.569 358.144 367.084L358.25 372.374L349.826 372.308C328.325 372.116 309.334 381.826 307.575 395.252C305.577 410.649 325.089 423.777 349.159 423.991L431.982 424.695C437.331 424.74 441.617 422.049 441.546 418.69L440.425 366.678C440.105 351.55 419.199 339.296 394.681 340.551Z" fill="#F9746E"/>
<path d="M394.681 340.551C373.302 341.656 357.861 353.569 358.144 367.084L358.25 372.374L349.826 372.308C328.325 372.116 309.334 381.826 307.575 395.252C305.577 410.649 325.089 423.777 349.159 423.991L431.982 424.695C437.331 424.74 441.617 422.049 441.546 418.69L440.425 366.678C440.105 351.55 419.199 339.296 394.681 340.551Z" fill="black" fill-opacity="0.2"/>
</g>
<path d="M355.945 363.63C355.652 350.783 371.63 339.391 393.899 338.333L393.899 338.333C419.327 337.136 440.995 348.815 441.326 363.236L442.455 411.338L442.454 411.339C442.535 414.868 437.628 417.701 431.514 417.654L431.513 417.655L348.19 417.003L348.189 417.003C323.231 416.799 303.003 404.29 305.075 389.611L305.174 389.011C307.525 376.469 327.008 367.523 348.894 367.701L348.895 367.7C352.809 367.729 355.994 365.89 355.945 363.63Z" fill="white" fill-opacity="0.1"/>
<path d="M355.945 363.63C355.652 350.783 371.63 339.391 393.899 338.333L393.899 338.333C419.327 337.136 440.995 348.815 441.326 363.236L442.455 411.338L442.454 411.339C442.535 414.868 437.628 417.701 431.514 417.654L431.513 417.655L348.19 417.003L348.189 417.003C323.231 416.799 303.003 404.29 305.075 389.611L305.174 389.011C307.525 376.469 327.008 367.523 348.894 367.701L348.895 367.7C352.809 367.729 355.994 365.89 355.945 363.63Z" fill="url(#paint0_linear_31839_8383)"/>
<path d="M355.945 363.63C355.652 350.783 371.63 339.391 393.899 338.333L393.899 338.333C419.327 337.136 440.995 348.815 441.326 363.236L442.455 411.338L442.454 411.339C442.535 414.868 437.628 417.701 431.514 417.654L431.513 417.655L348.19 417.003L348.189 417.003C323.231 416.799 303.003 404.29 305.075 389.611L305.174 389.011C307.525 376.469 327.008 367.523 348.894 367.701L348.895 367.7C352.809 367.729 355.994 365.89 355.945 363.63Z" stroke="url(#paint1_linear_31839_8383)" stroke-width="2.12597"/>
<g filter="url(#filter5_f_31839_8383)">
<path d="M556.193 435.226C546.111 429.406 542.733 420.754 547.516 413L558.865 394.597C562.587 388.561 570.815 383.811 581.27 381.662L613.148 375.11C626.581 372.349 641.567 374.299 651.649 380.12L669.42 390.379C683.842 398.705 683.842 412.204 669.42 420.53L626.193 445.485C611.77 453.812 588.387 453.812 573.964 445.485L556.193 435.226Z" fill="#4497C3"/>
</g>
<path d="M560.508 376.709C562.303 373.798 566.271 371.508 571.312 370.472L625.06 359.425C631.537 358.094 638.763 359.034 643.624 361.84L685.597 386.071C692.551 390.085 692.551 396.595 685.597 400.61L612.713 442.686C605.759 446.7 594.483 446.7 587.529 442.685L545.557 418.454C540.695 415.648 539.068 411.476 541.373 407.737L560.508 376.709Z" fill="white" fill-opacity="0.3"/>
<path d="M560.508 376.709C562.303 373.798 566.271 371.508 571.312 370.472L625.06 359.425C631.537 358.094 638.763 359.034 643.624 361.84L685.597 386.071C692.551 390.085 692.551 396.595 685.597 400.61L612.713 442.686C605.759 446.7 594.483 446.7 587.529 442.685L545.557 418.454C540.695 415.648 539.068 411.476 541.373 407.737L560.508 376.709Z" fill="url(#paint2_linear_31839_8383)"/>
<path d="M560.508 376.709C562.303 373.798 566.271 371.508 571.312 370.472L625.06 359.425C631.537 358.094 638.763 359.034 643.624 361.84L685.597 386.071C692.551 390.085 692.551 396.595 685.597 400.61L612.713 442.686C605.759 446.7 594.483 446.7 587.529 442.685L545.557 418.454C540.695 415.648 539.068 411.476 541.373 407.737L560.508 376.709Z" stroke="url(#paint3_linear_31839_8383)" stroke-width="3.01535" stroke-linejoin="round"/>
<g filter="url(#filter6_f_31839_8383)">
<path d="M726.297 233.927L873.729 218.63V477.617H727.127L726.297 233.927Z" fill="#CD995B" fill-opacity="0.4"/>
</g>
<path d="M754.707 220.714C747.813 217.715 737.976 218.029 731.7 221.652C724.826 225.62 724.826 232.052 731.7 236.02C737.482 239.358 746.287 239.886 753.033 237.605L754.707 220.714Z" fill="#CD995B"/>
<path d="M750.798 223.799C746.525 221.94 740.429 222.135 736.539 224.38C732.279 226.84 732.279 230.826 736.539 233.285C740.123 235.354 745.58 235.681 749.76 234.268L750.798 223.799Z" fill="black"/>
<path d="M799.437 194.894C794.242 190.914 794.786 185.235 801.062 181.612C807.936 177.643 819.077 177.643 825.951 181.612C831.733 184.95 832.647 190.033 828.696 193.927L799.437 194.894Z" fill="#CD995B"/>
<path d="M804.642 192.135C801.422 189.668 801.759 186.149 805.649 183.903C809.909 181.444 816.814 181.444 821.074 183.903C824.658 185.972 825.224 189.122 822.776 191.536L804.642 192.135Z" fill="black"/>
<path d="M848.047 248.897C858.314 242.97 878.003 231.234 874.432 217.29C873.064 211.95 868.289 206.292 858.275 200.51C822.087 179.619 786.996 189.728 766.276 201.69C745.555 213.652 727.555 233.628 764.231 254.801C774.014 260.449 783.594 263.208 792.646 264.072C817.085 266.396 837.687 254.878 848.047 248.897Z" fill="#CD995B"/>
<path d="M817.712 231.042C822.4 227.941 822.748 221.969 818.372 219.443C813.995 216.916 807.624 218.319 801.118 222.075L800.983 222.152C794.471 225.912 791.883 229.499 796.418 232.117C800.953 234.735 811.139 234.449 816.51 231.736L817.712 231.042Z" fill="black"/>
<path d="M781.986 234.317C784.49 232.872 784.223 230.375 781.391 228.739C778.558 227.104 774.232 226.95 771.729 228.396C769.225 229.841 769.492 232.338 772.324 233.974C775.157 235.609 779.483 235.763 781.986 234.317Z" fill="black"/>
<path d="M822.017 211.208C824.521 209.763 824.255 207.265 821.422 205.63C818.589 203.995 814.264 203.841 811.76 205.286C809.256 206.732 809.523 209.229 812.355 210.864C815.188 212.499 819.514 212.653 822.017 211.208Z" fill="black"/>
<path d="M823.517 241.967C822.752 242.409 821.893 242.82 820.964 243.179C818.485 244.137 815.888 244.61 813.646 244.507C813.261 244.49 812.974 244.297 813.004 244.074C813.034 243.852 813.369 243.686 813.755 243.704C815.651 243.789 817.996 243.353 820.184 242.506C822.337 241.674 824.085 240.556 824.974 239.439C825.69 238.541 826.164 237.246 824.347 236.197L815.305 230.977C815.034 230.821 815.034 230.564 815.305 230.407C815.577 230.25 816.021 230.25 816.293 230.407L825.335 235.627C827.201 236.705 827.522 238.179 826.248 239.775C825.641 240.536 824.693 241.289 823.517 241.967Z" fill="black"/>
<path d="M835.341 235.139C834.166 235.818 832.862 236.365 831.549 236.713C828.779 237.451 826.23 237.263 824.364 236.186L815.322 230.966C815.05 230.809 815.05 230.552 815.322 230.396C815.594 230.239 816.038 230.239 816.31 230.396L825.351 235.615C827.174 236.667 829.406 236.394 830.966 235.978C832.902 235.464 834.838 234.455 836.28 233.212C837.746 231.949 838.502 230.595 838.354 229.5C838.324 229.278 838.611 229.084 838.996 229.067C839.381 229.05 839.717 229.215 839.746 229.438C839.919 230.729 839.104 232.232 837.445 233.663C836.813 234.204 836.102 234.7 835.341 235.139Z" fill="black"/>
<g filter="url(#filter7_f_31839_8383)">
<path d="M754.703 226.75C747.809 223.751 737.972 224.065 731.696 227.688C724.822 231.656 724.822 238.088 731.696 242.056C737.478 245.395 746.283 245.922 753.029 243.641L754.703 226.75Z" fill="#BA884D"/>
</g>
<g filter="url(#filter8_f_31839_8383)">
<path d="M750.798 229.834C746.525 227.975 740.429 228.17 736.539 230.415C732.279 232.875 732.279 236.861 736.539 239.32C740.123 241.389 745.58 241.716 749.76 240.303L750.798 229.834Z" fill="black"/>
</g>
<g filter="url(#filter9_f_31839_8383)">
<path d="M799.433 200.929C794.238 196.949 794.782 191.27 801.058 187.647C807.932 183.679 819.073 183.679 825.947 187.647C831.729 190.985 832.643 196.068 828.692 199.962L799.433 200.929Z" fill="#BA884D"/>
</g>
<g filter="url(#filter10_f_31839_8383)">
<path d="M804.638 198.17C801.418 195.703 801.755 192.184 805.645 189.938C809.905 187.479 816.81 187.479 821.07 189.938C824.654 192.007 825.22 195.157 822.772 197.571L804.638 198.17Z" fill="black"/>
</g>
<g filter="url(#filter11_f_31839_8383)">
<path d="M848.051 254.933C858.318 249.007 878.007 237.27 874.436 223.326C873.068 217.987 868.293 212.328 858.278 206.546C822.091 185.655 787 195.764 766.279 207.726C745.559 219.689 727.559 239.664 764.235 260.837C774.018 266.485 783.598 269.245 792.65 270.108C817.089 272.432 837.691 260.914 848.051 254.933Z" fill="#BA884D"/>
</g>
<g filter="url(#filter12_f_31839_8383)">
<path d="M817.712 237.078C822.4 233.977 822.748 228.005 818.372 225.479C813.995 222.952 807.624 224.355 801.118 228.111L800.983 228.188C794.471 231.948 791.883 235.535 796.418 238.153C800.953 240.771 811.139 240.485 816.51 237.772L817.712 237.078Z" fill="black"/>
</g>
<g filter="url(#filter13_f_31839_8383)">
<path d="M781.986 240.353C784.49 238.907 784.223 236.41 781.391 234.775C778.558 233.139 774.232 232.985 771.729 234.431C769.225 235.876 769.492 238.373 772.324 240.009C775.157 241.644 779.483 241.798 781.986 240.353Z" fill="black"/>
</g>
<g filter="url(#filter14_f_31839_8383)">
<path d="M822.014 217.243C824.517 215.798 824.251 213.3 821.418 211.665C818.585 210.03 814.26 209.876 811.756 211.321C809.252 212.767 809.519 215.264 812.351 216.899C815.184 218.535 819.51 218.689 822.014 217.243Z" fill="black"/>
</g>
<path d="M823.513 248.003C822.748 248.444 821.889 248.855 820.96 249.214C818.481 250.172 815.884 250.645 813.642 250.543C813.257 250.526 812.97 250.332 813 250.109C813.03 249.887 813.365 249.722 813.751 249.739C815.647 249.824 817.993 249.388 820.18 248.541C822.333 247.709 824.081 246.591 824.97 245.474C825.686 244.576 826.16 243.282 824.343 242.232L815.301 237.013C815.03 236.856 815.03 236.599 815.301 236.442C815.573 236.286 816.017 236.286 816.289 236.442L825.331 241.662C827.197 242.74 827.518 244.214 826.244 245.81C825.637 246.571 824.689 247.324 823.513 248.003Z" fill="black"/>
<path d="M835.338 241.176C834.162 241.855 832.859 242.402 831.545 242.75C828.775 243.488 826.227 243.3 824.36 242.223L815.318 237.003C815.046 236.846 815.046 236.589 815.318 236.433C815.59 236.276 816.034 236.276 816.306 236.433L825.348 241.653C827.17 242.705 829.402 242.431 830.962 242.015C832.898 241.501 834.834 240.492 836.276 239.249C837.742 237.986 838.498 236.632 838.35 235.538C838.32 235.315 838.607 235.121 838.992 235.104C839.377 235.087 839.713 235.252 839.742 235.475C839.915 236.766 839.1 238.269 837.441 239.7C836.809 240.241 836.098 240.737 835.338 241.176Z" fill="black"/>
<g filter="url(#filter15_f_31839_8383)">
<path d="M760.782 236.513C754.29 235.996 746.565 239.273 742.785 244.357C738.644 249.925 740.801 255.548 747.603 256.919C753.325 258.072 760.51 255.845 765.114 251.792L760.782 236.513Z" fill="#CD995B"/>
<path d="M758.705 240.402C754.681 240.081 749.894 242.112 747.551 245.263C744.985 248.714 746.321 252.199 750.537 253.048C754.083 253.763 758.536 252.383 761.39 249.871L758.705 240.402Z" fill="black"/>
<path d="M787.72 200.285C782.25 198.391 780.778 193.26 784.559 188.176C788.7 182.608 797.567 179.207 804.369 180.578C810.091 181.732 812.522 185.897 810.684 190.508L787.72 200.285Z" fill="#CD995B"/>
<path d="M790.939 196.283C787.55 195.11 786.637 191.93 788.981 188.779C791.547 185.328 797.042 183.22 801.258 184.07C804.804 184.785 806.311 187.366 805.172 190.224L790.939 196.283Z" fill="black"/>
<path d="M844.523 232.656C850.707 224.34 862.442 208.068 854.925 196.968C852.046 192.717 846.347 189.227 836.438 187.23C800.63 180.012 776.09 199.563 763.608 216.347C751.127 233.131 743.499 256.09 779.791 263.405C789.471 265.356 798.022 264.844 805.516 262.836C825.747 257.407 838.283 241.048 844.523 232.656Z" fill="#CD995B"/>
<path d="M814.393 226.309C817.084 222.167 815.359 216.84 811.028 215.967C806.698 215.094 802.097 218.265 798.178 223.535L798.097 223.644C794.174 228.919 793.317 232.845 797.804 233.749C802.292 234.654 810.303 231.295 813.669 227.283L814.393 226.309Z" fill="black"/>
<path d="M787.057 240.078C788.565 238.05 787.515 235.948 784.712 235.383C781.909 234.818 778.414 236.004 776.906 238.032C775.398 240.06 776.448 242.162 779.251 242.727C782.054 243.292 785.548 242.106 787.057 240.078Z" fill="black"/>
<path d="M811.166 207.653C812.674 205.625 811.624 203.523 808.821 202.958C806.019 202.393 802.524 203.579 801.016 205.607C799.508 207.635 800.557 209.737 803.36 210.302C806.163 210.867 809.658 209.681 811.166 207.653Z" fill="black"/>
<path d="M822.676 234.087C822.215 234.707 821.669 235.328 821.05 235.926C819.398 237.52 817.49 238.727 815.671 239.321C815.358 239.424 815.065 239.342 815.015 239.139C814.964 238.935 815.175 238.688 815.488 238.585C817.026 238.081 818.746 236.984 820.204 235.576C821.638 234.191 822.655 232.68 822.988 231.432C823.256 230.428 823.2 229.152 821.401 228.789L812.454 226.986C812.186 226.932 812.1 226.707 812.263 226.487C812.427 226.267 812.781 226.132 813.049 226.186L821.996 227.989C823.843 228.361 824.593 229.552 824.114 231.337C823.886 232.188 823.384 233.135 822.676 234.087Z" fill="black"/>
<path d="M829.803 224.51C829.095 225.462 828.241 226.338 827.312 227.044C825.355 228.535 823.263 229.148 821.416 228.776L812.469 226.973C812.2 226.918 812.114 226.694 812.278 226.474C812.442 226.254 812.795 226.118 813.064 226.173L822.011 227.976C823.814 228.339 825.499 227.419 826.601 226.578C827.97 225.539 829.172 224.066 829.903 222.539C830.647 220.987 830.795 219.572 830.31 218.66C830.211 218.475 830.374 218.218 830.675 218.085C830.976 217.953 831.299 217.995 831.397 218.18C831.968 219.257 831.823 220.819 830.982 222.577C830.661 223.243 830.261 223.894 829.803 224.51Z" fill="black"/>
</g>
<path d="M754.707 220.714C747.813 217.715 737.976 218.029 731.7 221.652C724.826 225.62 724.826 232.052 731.7 236.02C737.482 239.358 746.287 239.886 753.033 237.605L754.707 220.714Z" fill="#CD995B"/>
<path d="M750.798 223.799C746.525 221.94 740.429 222.135 736.539 224.38C732.279 226.84 732.279 230.826 736.539 233.285C740.123 235.354 745.58 235.681 749.76 234.268L750.798 223.799Z" fill="black"/>
<path d="M799.437 194.894C794.242 190.914 794.786 185.235 801.062 181.612C807.936 177.643 819.077 177.643 825.951 181.612C831.733 184.95 832.647 190.033 828.696 193.927L799.437 194.894Z" fill="#CD995B"/>
<path d="M804.642 192.135C801.422 189.668 801.759 186.149 805.649 183.903C809.909 181.444 816.814 181.444 821.074 183.903C824.658 185.972 825.224 189.122 822.776 191.536L804.642 192.135Z" fill="black"/>
<path d="M848.047 248.897C858.314 242.97 878.003 231.234 874.432 217.29C873.064 211.95 868.289 206.292 858.275 200.51C822.087 179.619 786.996 189.728 766.276 201.69C745.555 213.652 727.555 233.628 764.231 254.801C774.014 260.449 783.594 263.208 792.646 264.072C817.085 266.396 837.687 254.878 848.047 248.897Z" fill="#CD995B"/>
<path d="M817.712 231.042C822.4 227.941 822.748 221.969 818.372 219.443C813.995 216.916 807.624 218.319 801.118 222.075L800.983 222.152C794.471 225.912 791.883 229.499 796.418 232.117C800.953 234.735 811.139 234.449 816.51 231.736L817.712 231.042Z" fill="black"/>
<path d="M781.986 234.317C784.49 232.872 784.223 230.375 781.391 228.739C778.558 227.104 774.232 226.95 771.729 228.396C769.225 229.841 769.492 232.338 772.324 233.974C775.157 235.609 779.483 235.763 781.986 234.317Z" fill="black"/>
<path d="M822.017 211.208C824.521 209.763 824.255 207.265 821.422 205.63C818.589 203.995 814.264 203.841 811.76 205.286C809.256 206.732 809.523 209.229 812.355 210.864C815.188 212.499 819.514 212.653 822.017 211.208Z" fill="black"/>
<path d="M823.517 241.967C822.752 242.409 821.893 242.82 820.964 243.179C818.485 244.137 815.888 244.61 813.646 244.507C813.261 244.49 812.974 244.297 813.004 244.074C813.034 243.852 813.369 243.686 813.755 243.704C815.651 243.789 817.996 243.353 820.184 242.506C822.337 241.674 824.085 240.556 824.974 239.439C825.69 238.541 826.164 237.246 824.347 236.197L815.305 230.977C815.034 230.821 815.034 230.564 815.305 230.407C815.577 230.25 816.021 230.25 816.293 230.407L825.335 235.627C827.201 236.705 827.522 238.179 826.248 239.775C825.641 240.536 824.693 241.289 823.517 241.967Z" fill="black"/>
<path d="M835.341 235.139C834.166 235.818 832.862 236.365 831.549 236.713C828.779 237.451 826.23 237.263 824.364 236.186L815.322 230.966C815.05 230.809 815.05 230.552 815.322 230.396C815.594 230.239 816.038 230.239 816.31 230.396L825.351 235.615C827.174 236.667 829.406 236.394 830.966 235.978C832.902 235.464 834.838 234.455 836.28 233.212C837.746 231.949 838.502 230.595 838.354 229.5C838.324 229.278 838.611 229.084 838.996 229.067C839.381 229.05 839.717 229.215 839.746 229.438C839.919 230.729 839.104 232.232 837.445 233.663C836.813 234.204 836.102 234.7 835.341 235.139Z" fill="black"/>
<mask id="path-49-outside-1_31839_8383" maskUnits="userSpaceOnUse" x="722.246" y="170.424" width="156" height="93" fill="black">
<rect fill="white" x="722.246" y="170.424" width="156" height="93"/>
<path fill-rule="evenodd" clip-rule="evenodd" d="M800.758 177.4C807.632 173.432 818.772 173.432 825.646 177.4C829.113 179.401 830.83 182.029 830.798 184.652C830.793 185.071 830.694 185.467 830.517 185.84C839.447 187.608 848.676 190.93 857.978 196.299C867.992 202.081 872.767 207.739 874.135 213.079C877.705 227.022 858.017 238.759 847.75 244.686C837.39 250.667 816.788 262.184 792.349 259.861C783.297 258.997 773.716 256.238 763.934 250.591C754.541 245.168 748.735 239.824 745.642 234.674C745.109 234.741 744.55 234.781 743.965 234.783C739.421 234.801 734.868 233.81 731.401 231.809C724.528 227.841 724.528 221.409 731.401 217.441C735.385 215.141 740.804 214.175 745.993 214.543C746.051 214.547 746.108 214.553 746.165 214.557C750.36 207.929 757.966 202.105 765.978 197.479C774.017 192.838 784.219 188.477 795.809 186.096C795.78 186.007 795.756 185.916 795.736 185.824C795.099 182.828 796.774 179.7 800.758 177.4Z"/>
</mask>
<path fill-rule="evenodd" clip-rule="evenodd" d="M800.758 177.4C807.632 173.432 818.772 173.432 825.646 177.4C829.113 179.401 830.83 182.029 830.798 184.652C830.793 185.071 830.694 185.467 830.517 185.84C839.447 187.608 848.676 190.93 857.978 196.299C867.992 202.081 872.767 207.739 874.135 213.079C877.705 227.022 858.017 238.759 847.75 244.686C837.39 250.667 816.788 262.184 792.349 259.861C783.297 258.997 773.716 256.238 763.934 250.591C754.541 245.168 748.735 239.824 745.642 234.674C745.109 234.741 744.55 234.781 743.965 234.783C739.421 234.801 734.868 233.81 731.401 231.809C724.528 227.841 724.528 221.409 731.401 217.441C735.385 215.141 740.804 214.175 745.993 214.543C746.051 214.547 746.108 214.553 746.165 214.557C750.36 207.929 757.966 202.105 765.978 197.479C774.017 192.838 784.219 188.477 795.809 186.096C795.78 186.007 795.756 185.916 795.736 185.824C795.099 182.828 796.774 179.7 800.758 177.4Z" fill="white" fill-opacity="0.15"/>
<path fill-rule="evenodd" clip-rule="evenodd" d="M800.758 177.4C807.632 173.432 818.772 173.432 825.646 177.4C829.113 179.401 830.83 182.029 830.798 184.652C830.793 185.071 830.694 185.467 830.517 185.84C839.447 187.608 848.676 190.93 857.978 196.299C867.992 202.081 872.767 207.739 874.135 213.079C877.705 227.022 858.017 238.759 847.75 244.686C837.39 250.667 816.788 262.184 792.349 259.861C783.297 258.997 773.716 256.238 763.934 250.591C754.541 245.168 748.735 239.824 745.642 234.674C745.109 234.741 744.55 234.781 743.965 234.783C739.421 234.801 734.868 233.81 731.401 231.809C724.528 227.841 724.528 221.409 731.401 217.441C735.385 215.141 740.804 214.175 745.993 214.543C746.051 214.547 746.108 214.553 746.165 214.557C750.36 207.929 757.966 202.105 765.978 197.479C774.017 192.838 784.219 188.477 795.809 186.096C795.78 186.007 795.756 185.916 795.736 185.824C795.099 182.828 796.774 179.7 800.758 177.4Z" fill="url(#paint4_linear_31839_8383)"/>
<path fill-rule="evenodd" clip-rule="evenodd" d="M800.758 177.4L799.137 174.592L799.137 174.592L800.758 177.4ZM825.646 177.4L827.268 174.592L827.268 174.592L825.646 177.4ZM830.798 184.652L834.04 184.692V184.691L830.798 184.652ZM830.517 185.84L827.59 184.442C827.159 185.346 827.169 186.398 827.618 187.293C828.067 188.189 828.904 188.826 829.887 189.02L830.517 185.84ZM857.978 196.299L859.599 193.491L859.599 193.491L857.978 196.299ZM874.135 213.079L877.276 212.274L877.276 212.274L874.135 213.079ZM847.75 244.686L849.371 247.495V247.495L847.75 244.686ZM792.349 259.861L792.041 263.089L792.042 263.089L792.349 259.861ZM763.934 250.591L762.312 253.399H762.312L763.934 250.591ZM745.642 234.674L748.421 233.004C747.759 231.901 746.507 231.294 745.231 231.457L745.642 234.674ZM743.965 234.783L743.978 238.026H743.978L743.965 234.783ZM731.401 231.809L729.78 234.618L729.78 234.618L731.401 231.809ZM731.401 217.441L729.78 214.633L729.78 214.633L731.401 217.441ZM745.993 214.543L746.222 211.308H746.222L745.993 214.543ZM746.165 214.557L745.897 217.789C747.1 217.889 748.259 217.312 748.905 216.291L746.165 214.557ZM765.978 197.479L764.357 194.671L764.357 194.671L765.978 197.479ZM795.809 186.096L796.461 189.273C797.36 189.088 798.138 188.532 798.603 187.741C799.069 186.95 799.177 186 798.902 185.125L795.809 186.096ZM795.736 185.824L792.564 186.498L792.565 186.499L795.736 185.824ZM800.758 177.4L802.379 180.208C805.207 178.576 809.117 177.667 813.202 177.667C817.287 177.667 821.197 178.576 824.025 180.208L825.646 177.4L827.268 174.592C823.222 172.256 818.124 171.181 813.202 171.181C808.28 171.181 803.182 172.256 799.137 174.592L800.758 177.4ZM825.646 177.4L824.025 180.208C826.895 181.866 827.568 183.578 827.555 184.613L830.798 184.652L834.04 184.691C834.091 180.48 831.33 176.937 827.268 174.592L825.646 177.4ZM830.798 184.652L827.555 184.613C827.556 184.579 827.56 184.542 827.569 184.507C827.577 184.473 827.586 184.451 827.59 184.442L830.517 185.84L833.443 187.237C833.811 186.467 834.029 185.609 834.04 184.692L830.798 184.652ZM830.517 185.84L829.887 189.02C838.47 190.72 847.364 193.916 856.356 199.108L857.978 196.299L859.599 193.491C849.989 187.943 840.425 184.496 831.146 182.659L830.517 185.84ZM857.978 196.299L856.356 199.108C866.077 204.72 869.946 209.795 870.993 213.884L874.135 213.079L877.276 212.274C875.588 205.684 869.906 199.442 859.599 193.491L857.978 196.299ZM874.135 213.079L870.993 213.883C872.312 219.033 869.481 224.285 863.909 229.527C858.46 234.653 851.286 238.901 846.129 241.878L847.75 244.686L849.371 247.495C854.481 244.545 862.284 239.961 868.353 234.251C874.3 228.656 879.528 221.068 877.276 212.274L874.135 213.079ZM847.75 244.686L846.129 241.878C835.775 247.855 815.975 258.85 792.655 256.633L792.349 259.861L792.042 263.089C817.6 265.519 839.004 253.479 849.371 247.495L847.75 244.686ZM792.349 259.861L792.657 256.633C784.056 255.812 774.924 253.191 765.555 247.782L763.934 250.591L762.312 253.399C772.508 259.285 782.538 262.182 792.041 263.089L792.349 259.861ZM763.934 250.591L765.555 247.782C756.409 242.502 751.121 237.498 748.421 233.004L745.642 234.674L742.862 236.343C746.349 242.15 752.673 247.834 762.312 253.399L763.934 250.591ZM745.642 234.674L745.231 231.457C744.827 231.508 744.401 231.538 743.952 231.54L743.965 234.783L743.978 238.026C744.699 238.023 745.391 237.975 746.052 237.89L745.642 234.674ZM743.965 234.783L743.952 231.54C739.829 231.557 735.875 230.648 733.023 229.001L731.401 231.809L729.78 234.618C733.861 236.973 739.013 238.046 743.978 238.026L743.965 234.783ZM731.401 231.809L733.023 229.001C730.176 227.358 729.489 225.658 729.489 224.625C729.489 223.593 730.176 221.893 733.023 220.249L731.401 217.441L729.78 214.633C725.753 216.958 723.003 220.458 723.003 224.625C723.003 228.792 725.753 232.293 729.78 234.618L731.401 231.809ZM731.401 217.441L733.023 220.249C736.315 218.349 741.05 217.443 745.764 217.777L745.993 214.543L746.222 211.308C740.557 210.907 734.456 211.934 729.78 214.633L731.401 217.441ZM745.993 214.543L745.764 217.777C745.762 217.777 745.766 217.777 745.79 217.78C745.796 217.78 745.802 217.781 745.81 217.781C745.817 217.782 745.825 217.783 745.834 217.783C745.851 217.785 745.873 217.787 745.897 217.789L746.165 214.557L746.433 211.326C746.418 211.324 746.41 211.324 746.368 211.32C746.335 211.317 746.282 211.312 746.222 211.308L745.993 214.543ZM746.165 214.557L748.905 216.291C752.678 210.33 759.737 204.827 767.6 200.288L765.978 197.479L764.357 194.671C756.194 199.383 748.042 205.528 743.425 212.823L746.165 214.557ZM765.978 197.479L767.6 200.288C775.383 195.794 785.26 191.574 796.461 189.273L795.809 186.096L795.156 182.92C783.178 185.381 772.651 189.883 764.357 194.671L765.978 197.479ZM795.809 186.096L798.902 185.125C798.9 185.118 798.903 185.127 798.908 185.149L795.736 185.824L792.565 186.499C792.609 186.705 792.661 186.896 792.715 187.068L795.809 186.096ZM795.736 185.824L798.908 185.15C798.673 184.043 799.084 182.111 802.379 180.208L800.758 177.4L799.137 174.592C794.464 177.289 791.526 181.613 792.564 186.498L795.736 185.824Z" fill="url(#paint5_linear_31839_8383)" mask="url(#path-49-outside-1_31839_8383)"/>
<g filter="url(#filter16_f_31839_8383)">
<path d="M260.996 225.891L216.834 232.73L228.68 207.235C229.347 205.799 227.872 204.324 225.384 203.938L207.367 201.154C204.881 200.77 202.322 201.622 201.655 203.058L189.808 228.553L157.495 209.898C155.673 208.847 152.721 208.848 150.9 209.9L137.707 217.516C135.885 218.568 135.883 220.272 137.705 221.323L170.02 239.979L125.858 246.818C123.37 247.203 121.895 248.681 122.56 250.116L127.381 260.516C128.046 261.951 130.603 262.804 133.091 262.419L177.253 255.58L165.407 281.074C164.74 282.511 166.217 283.987 168.703 284.371L186.72 287.155C189.206 287.54 191.763 286.687 192.433 285.251L204.279 259.757L236.592 278.411C238.414 279.463 241.366 279.461 243.187 278.41L256.381 270.794C258.202 269.742 258.204 268.038 256.383 266.986L224.067 248.331L268.229 241.492C270.718 241.106 272.195 239.63 271.527 238.194L266.704 227.793C266.039 226.357 263.484 225.506 260.996 225.891Z" fill="#F5BF42"/>
</g>
<path d="M260.996 225.891L216.834 232.73L228.68 207.235C229.347 205.799 227.872 204.324 225.384 203.938L207.367 201.154C204.881 200.77 202.322 201.622 201.655 203.058L189.808 228.553L157.495 209.898C155.673 208.847 152.721 208.848 150.9 209.9L137.707 217.516C135.885 218.568 135.883 220.272 137.705 221.323L170.02 239.979L125.858 246.818C123.37 247.203 121.895 248.681 122.56 250.116L127.381 260.516C128.046 261.951 130.603 262.804 133.091 262.419L177.253 255.58L165.407 281.074C164.74 282.511 166.217 283.987 168.703 284.371L186.72 287.155C189.206 287.54 191.763 286.687 192.433 285.251L204.279 259.757L236.592 278.411C238.414 279.463 241.366 279.461 243.187 278.41L256.381 270.794C258.202 269.742 258.204 268.038 256.383 266.986L224.067 248.331L268.229 241.492C270.718 241.106 272.195 239.63 271.527 238.194L266.704 227.793C266.039 226.357 263.484 225.506 260.996 225.891Z" fill="#F5BF42"/>
<g filter="url(#filter17_f_31839_8383)">
<rect width="106.791" height="106.791" transform="matrix(0.86414 -0.503252 0.86414 0.503252 104.773 240.491)" fill="#FAA839"/>
</g>
<g filter="url(#filter18_f_31839_8383)">
<path d="M260.996 223.913L230.002 228.712C224.151 229.618 218.797 226.527 220.366 223.15L228.68 205.257C229.347 203.82 227.872 202.345 225.384 201.96L207.367 199.176C204.881 198.792 202.322 199.643 201.655 201.08L193.337 218.98C191.769 222.356 184.458 223.486 180.177 221.015L157.495 207.92C155.673 206.869 152.721 206.87 150.9 207.921L137.707 215.538C135.885 216.589 135.883 218.293 137.705 219.345L160.389 232.441C164.67 234.912 162.713 239.132 156.865 240.038L125.858 244.839C123.37 245.225 121.895 246.702 122.56 248.138L127.381 258.537C128.046 259.973 130.603 260.825 133.091 260.44L164.085 255.64C169.936 254.734 175.291 257.826 173.721 261.203L165.407 279.096C164.74 280.533 166.217 282.009 168.703 282.393L186.72 285.177C189.206 285.561 191.763 284.708 192.433 283.273L200.75 265.373C202.319 261.997 209.629 260.867 213.91 263.338L236.592 276.433C238.414 277.484 241.366 277.483 243.187 276.432L256.381 268.815C258.202 267.764 258.204 266.059 256.383 265.008L233.698 251.912C229.417 249.441 231.375 245.22 237.222 244.315L268.229 239.513C270.718 239.128 272.195 237.652 271.527 236.215L266.704 225.814C266.039 224.379 263.484 223.527 260.996 223.913Z" fill="#FCB346"/>
</g>
<g filter="url(#filter19_f_31839_8383)">
<path d="M260.996 220.522L230.002 225.322C224.151 226.228 218.797 223.137 220.366 219.759L228.68 201.866C229.347 200.429 227.872 198.955 225.384 198.569L207.367 195.785C204.881 195.401 202.322 196.253 201.655 197.689L193.337 215.589C191.769 218.965 184.458 220.095 180.177 217.624L157.495 204.529C155.673 203.478 152.721 203.479 150.9 204.531L137.707 212.147C135.885 213.198 135.883 214.903 137.705 215.954L160.389 229.05C164.67 231.521 162.713 235.742 156.865 236.647L125.858 241.449C123.37 241.834 121.895 243.311 122.56 244.747L127.381 255.146C128.046 256.582 130.603 257.435 133.091 257.049L164.085 252.25C169.936 251.344 175.291 254.435 173.721 257.813L165.407 275.705C164.74 277.142 166.217 278.618 168.703 279.002L186.72 281.786C189.206 282.17 191.763 281.318 192.433 279.882L200.75 261.982C202.319 258.606 209.629 257.476 213.91 259.948L236.592 273.042C238.414 274.094 241.366 274.092 243.187 273.041L256.381 265.424C258.202 264.373 258.204 262.669 256.383 261.617L233.698 248.522C229.417 246.05 231.375 241.83 237.222 240.924L268.229 236.123C270.718 235.737 272.195 234.261 271.527 232.825L266.704 222.424C266.039 220.988 263.484 220.137 260.996 220.522Z" fill="#E19836"/>
</g>
<path d="M150.205 200.174C152.41 198.901 155.984 198.899 158.19 200.173L180.873 213.267C184.619 215.43 191.015 214.441 192.387 211.487L200.705 193.587C201.514 191.848 204.611 190.816 207.622 191.282L225.638 194.066L225.639 194.066C228.651 194.533 230.438 196.319 229.63 198.058L221.316 215.951C219.943 218.906 224.628 221.611 229.747 220.818L260.741 216.019C263.66 215.567 266.656 216.52 267.573 218.161L267.655 218.322L272.477 228.722C273.285 230.462 271.496 232.249 268.484 232.716L237.478 237.517C232.361 238.31 230.648 242.002 234.393 244.165L257.078 257.261C259.283 258.534 259.281 260.598 257.076 261.871L243.882 269.487C241.678 270.76 238.103 270.762 235.897 269.488L213.215 256.394C209.469 254.231 203.072 255.22 201.699 258.174L193.382 276.074C192.572 277.812 189.477 278.845 186.466 278.38L168.449 275.595C165.438 275.13 163.649 273.342 164.458 271.603L172.771 253.711C174.144 250.755 169.459 248.05 164.34 248.843L133.347 253.643C130.333 254.109 127.236 253.077 126.43 251.338L121.609 240.938C120.804 239.201 122.59 237.412 125.603 236.946L156.61 232.144C161.727 231.352 163.44 227.659 159.693 225.496L137.009 212.4C134.803 211.127 134.807 209.063 137.011 207.791L150.205 200.174Z" fill="white" fill-opacity="0.43"/>
<path d="M150.205 200.174C152.41 198.901 155.984 198.899 158.19 200.173L180.873 213.267C184.619 215.43 191.015 214.441 192.387 211.487L200.705 193.587C201.514 191.848 204.611 190.816 207.622 191.282L225.638 194.066L225.639 194.066C228.651 194.533 230.438 196.319 229.63 198.058L221.316 215.951C219.943 218.906 224.628 221.611 229.747 220.818L260.741 216.019C263.66 215.567 266.656 216.52 267.573 218.161L267.655 218.322L272.477 228.722C273.285 230.462 271.496 232.249 268.484 232.716L237.478 237.517C232.361 238.31 230.648 242.002 234.393 244.165L257.078 257.261C259.283 258.534 259.281 260.598 257.076 261.871L243.882 269.487C241.678 270.76 238.103 270.762 235.897 269.488L213.215 256.394C209.469 254.231 203.072 255.22 201.699 258.174L193.382 276.074C192.572 277.812 189.477 278.845 186.466 278.38L168.449 275.595C165.438 275.13 163.649 273.342 164.458 271.603L172.771 253.711C174.144 250.755 169.459 248.05 164.34 248.843L133.347 253.643C130.333 254.109 127.236 253.077 126.43 251.338L121.609 240.938C120.804 239.201 122.59 237.412 125.603 236.946L156.61 232.144C161.727 231.352 163.44 227.659 159.693 225.496L137.009 212.4C134.803 211.127 134.807 209.063 137.011 207.791L150.205 200.174Z" fill="url(#paint6_linear_31839_8383)"/>
<path d="M150.205 200.174C152.41 198.901 155.984 198.899 158.19 200.173L180.873 213.267C184.619 215.43 191.015 214.441 192.387 211.487L200.705 193.587C201.514 191.848 204.611 190.816 207.622 191.282L225.638 194.066L225.639 194.066C228.651 194.533 230.438 196.319 229.63 198.058L221.316 215.951C219.943 218.906 224.628 221.611 229.747 220.818L260.741 216.019C263.66 215.567 266.656 216.52 267.573 218.161L267.655 218.322L272.477 228.722C273.285 230.462 271.496 232.249 268.484 232.716L237.478 237.517C232.361 238.31 230.648 242.002 234.393 244.165L257.078 257.261C259.283 258.534 259.281 260.598 257.076 261.871L243.882 269.487C241.678 270.76 238.103 270.762 235.897 269.488L213.215 256.394C209.469 254.231 203.072 255.22 201.699 258.174L193.382 276.074C192.572 277.812 189.477 278.845 186.466 278.38L168.449 275.595C165.438 275.13 163.649 273.342 164.458 271.603L172.771 253.711C174.144 250.755 169.459 248.05 164.34 248.843L133.347 253.643C130.333 254.109 127.236 253.077 126.43 251.338L121.609 240.938C120.804 239.201 122.59 237.412 125.603 236.946L156.61 232.144C161.727 231.352 163.44 227.659 159.693 225.496L137.009 212.4C134.803 211.127 134.807 209.063 137.011 207.791L150.205 200.174Z" stroke="url(#paint7_linear_31839_8383)" stroke-width="1.60569"/>
<g class="cadu-chain-emoji" aria-hidden="true">
<text x="306.73" y="303" font-size="34" text-anchor="middle" dominant-baseline="middle" font-family="system-ui, 'Segoe UI Emoji', 'Apple Color Emoji', 'Noto Color Emoji', sans-serif">&#x1F517;</text>
<text x="510.8" y="338" font-size="34" text-anchor="middle" dominant-baseline="middle" font-family="system-ui, 'Segoe UI Emoji', 'Apple Color Emoji', 'Noto Color Emoji', sans-serif">&#x1F517;</text>
<text x="693.25" y="312" font-size="34" text-anchor="middle" dominant-baseline="middle" font-family="system-ui, 'Segoe UI Emoji', 'Apple Color Emoji', 'Noto Color Emoji', sans-serif">&#x1F517;</text>
<text x="868.05" y="353" font-size="34" text-anchor="middle" dominant-baseline="middle" font-family="system-ui, 'Segoe UI Emoji', 'Apple Color Emoji', 'Noto Color Emoji', sans-serif">&#x1F517;</text>
</g>
<path d="M164.649 334.191H149.489V343.751H160.889V346.551H149.489V356.591H164.649V359.391H146.289V331.391H164.649V334.191ZM170.887 353.271C171.047 354.071 171.341 354.737 171.767 355.271C172.194 355.777 172.741 356.164 173.407 356.431C174.101 356.697 174.901 356.831 175.807 356.831C177.221 356.831 178.287 356.564 179.007 356.031C179.754 355.471 180.127 354.777 180.127 353.951C180.127 353.257 179.901 352.697 179.447 352.271C179.021 351.844 178.447 351.497 177.727 351.231C177.007 350.937 176.207 350.684 175.327 350.471C174.634 350.311 173.887 350.124 173.087 349.911C172.287 349.671 171.527 349.351 170.807 348.951C170.087 348.551 169.501 348.031 169.047 347.391C168.594 346.751 168.367 345.911 168.367 344.871C168.367 343.724 168.674 342.724 169.287 341.871C169.927 340.991 170.794 340.311 171.887 339.831C173.007 339.351 174.287 339.111 175.727 339.111C177.381 339.111 178.847 339.471 180.127 340.191C181.434 340.911 182.341 342.031 182.847 343.551L180.047 344.511C179.861 343.817 179.514 343.284 179.007 342.911C178.527 342.537 177.981 342.284 177.367 342.151C176.781 342.017 176.194 341.951 175.607 341.951C174.407 341.951 173.434 342.191 172.687 342.671C171.967 343.124 171.607 343.817 171.607 344.751C171.607 345.257 171.727 345.684 171.967 346.031C172.207 346.351 172.541 346.617 172.967 346.831C173.394 347.044 173.901 347.231 174.487 347.391C175.074 347.524 175.714 347.684 176.407 347.871C177.181 348.057 177.967 348.297 178.767 348.591C179.567 348.857 180.314 349.217 181.007 349.671C181.701 350.097 182.261 350.657 182.687 351.351C183.141 352.017 183.367 352.857 183.367 353.871C183.367 355.044 183.047 356.071 182.407 356.951C181.767 357.804 180.874 358.471 179.727 358.951C178.607 359.431 177.301 359.671 175.807 359.671C173.754 359.671 172.047 359.217 170.687 358.311C169.354 357.377 168.461 356.017 168.007 354.231L170.887 353.271ZM195.655 359.671C193.708 359.671 192.002 359.244 190.535 358.391C189.068 357.537 187.922 356.351 187.095 354.831C186.295 353.284 185.895 351.497 185.895 349.471C185.895 347.417 186.295 345.617 187.095 344.071C187.922 342.497 189.068 341.284 190.535 340.431C192.002 339.551 193.708 339.111 195.655 339.111C197.708 339.111 199.508 339.591 201.055 340.551C202.602 341.484 203.722 342.791 204.415 344.471L201.655 345.431C201.255 344.364 200.522 343.524 199.455 342.911C198.415 342.271 197.202 341.951 195.815 341.951C194.455 341.951 193.268 342.257 192.255 342.871C191.268 343.484 190.495 344.351 189.935 345.471C189.402 346.591 189.135 347.911 189.135 349.431C189.135 351.671 189.735 353.471 190.935 354.831C192.135 356.164 193.735 356.831 195.735 356.831C197.095 356.831 198.308 356.524 199.375 355.911C200.442 355.297 201.228 354.471 201.735 353.431L204.455 354.391C203.735 356.044 202.602 357.337 201.055 358.271C199.508 359.204 197.708 359.671 195.655 359.671ZM216.905 359.671C215.012 359.671 213.318 359.257 211.825 358.431C210.332 357.604 209.158 356.431 208.305 354.911C207.452 353.364 207.025 351.537 207.025 349.431C207.025 347.297 207.452 345.457 208.305 343.911C209.185 342.364 210.372 341.177 211.865 340.351C213.385 339.524 215.092 339.111 216.985 339.111C218.878 339.111 220.572 339.524 222.065 340.351C223.585 341.177 224.772 342.364 225.625 343.911C226.505 345.431 226.945 347.244 226.945 349.351C226.945 351.484 226.505 353.324 225.625 354.871C224.745 356.417 223.545 357.604 222.025 358.431C220.505 359.257 218.798 359.671 216.905 359.671ZM216.865 356.831C218.038 356.831 219.145 356.577 220.185 356.071C221.225 355.537 222.065 354.724 222.705 353.631C223.372 352.511 223.705 351.097 223.705 349.391C223.705 347.657 223.385 346.244 222.745 345.151C222.105 344.057 221.265 343.257 220.225 342.751C219.212 342.217 218.118 341.951 216.945 341.951C215.772 341.951 214.678 342.217 213.665 342.751C212.652 343.257 211.825 344.071 211.185 345.191C210.572 346.284 210.265 347.684 210.265 349.391C210.265 351.124 210.572 352.537 211.185 353.631C211.798 354.724 212.598 355.537 213.585 356.071C214.598 356.577 215.692 356.831 216.865 356.831ZM230.762 330.591H233.762V359.391H230.762V330.591ZM251.287 359.391L251.047 355.791C250.487 357.017 249.66 357.977 248.567 358.671C247.473 359.337 246.087 359.671 244.407 359.671C242.967 359.671 241.74 359.444 240.727 358.991C239.713 358.537 238.927 357.897 238.367 357.071C237.833 356.217 237.567 355.217 237.567 354.071C237.567 352.391 238.193 351.017 239.447 349.951C240.7 348.857 242.513 348.191 244.887 347.951L251.047 347.271V345.671C251.047 344.551 250.633 343.657 249.807 342.991C248.98 342.297 247.86 341.951 246.447 341.951C245.06 341.951 243.9 342.271 242.967 342.911C242.06 343.551 241.433 344.471 241.087 345.671L238.367 344.711C238.9 342.951 239.873 341.577 241.287 340.591C242.727 339.604 244.473 339.111 246.527 339.111C248.9 339.111 250.74 339.724 252.047 340.951C253.38 342.151 254.047 343.791 254.047 345.871V359.391H251.287ZM251.047 349.831L244.847 350.551C243.513 350.711 242.5 351.084 241.807 351.671C241.113 352.231 240.767 352.977 240.767 353.911C240.767 354.844 241.1 355.591 241.767 356.151C242.46 356.711 243.447 356.991 244.727 356.991C246.193 356.991 247.393 356.697 248.327 356.111C249.26 355.524 249.94 354.737 250.367 353.751C250.82 352.737 251.047 351.644 251.047 350.471V349.831Z" fill="black"/>
<path d="M320.154 511.028C320.154 508.922 320.5 507.002 321.194 505.268C321.887 503.508 322.86 502.002 324.114 500.748C325.394 499.468 326.86 498.482 328.514 497.788C330.194 497.095 332.02 496.748 333.994 496.748C336.874 496.748 339.394 497.415 341.554 498.748C343.74 500.082 345.394 501.975 346.514 504.428L343.914 505.388C343.3 504.082 342.487 503.015 341.474 502.188C340.46 501.335 339.314 500.695 338.034 500.268C336.754 499.842 335.407 499.628 333.994 499.628C331.994 499.628 330.194 500.082 328.594 500.988C326.994 501.895 325.727 503.202 324.794 504.908C323.887 506.615 323.434 508.655 323.434 511.028C323.434 513.375 323.887 515.402 324.794 517.108C325.727 518.815 326.994 520.135 328.594 521.068C330.194 521.975 331.994 522.428 333.994 522.428C335.434 522.428 336.807 522.202 338.114 521.748C339.42 521.295 340.594 520.588 341.634 519.628C342.7 518.668 343.554 517.468 344.194 516.028L346.794 516.988C345.647 519.735 343.967 521.815 341.754 523.228C339.54 524.615 336.954 525.308 333.994 525.308C332.02 525.308 330.194 524.962 328.514 524.268C326.86 523.575 325.394 522.588 324.114 521.308C322.86 520.028 321.887 518.522 321.194 516.788C320.5 515.028 320.154 513.108 320.154 511.028ZM351.003 496.228H354.003V525.028H351.003V496.228ZM363.968 496.508V499.028L356.488 503.188V501.028L363.968 496.508ZM359.008 505.028H362.208V525.028H359.008V505.028ZM367.247 505.028H370.007L370.167 507.868C370.807 506.882 371.647 506.122 372.687 505.588C373.727 505.028 374.94 504.748 376.327 504.748C377.847 504.748 379.18 505.082 380.327 505.748C381.474 506.388 382.367 507.362 383.007 508.668C383.647 509.948 383.967 511.562 383.967 513.508V525.028H380.967V513.868C380.967 511.788 380.514 510.215 379.607 509.148C378.727 508.055 377.447 507.508 375.767 507.508C374.034 507.508 372.674 508.082 371.687 509.228C370.727 510.375 370.247 512.068 370.247 514.308V525.028H367.247V505.028ZM389.289 505.028H392.249V525.028H389.289V505.028ZM390.809 501.028C390.196 501.028 389.689 500.828 389.289 500.428C388.889 500.028 388.689 499.535 388.689 498.948C388.689 498.335 388.889 497.828 389.289 497.428C389.689 497.028 390.196 496.828 390.809 496.828C391.369 496.828 391.849 497.028 392.249 497.428C392.676 497.828 392.889 498.335 392.889 498.948C392.889 499.535 392.676 500.028 392.249 500.428C391.849 500.828 391.369 501.028 390.809 501.028ZM406.425 525.308C404.478 525.308 402.772 524.882 401.305 524.028C399.838 523.175 398.692 521.988 397.865 520.468C397.065 518.922 396.665 517.135 396.665 515.108C396.665 513.055 397.065 511.255 397.865 509.708C398.692 508.135 399.838 506.922 401.305 506.068C402.772 505.188 404.478 504.748 406.425 504.748C408.478 504.748 410.278 505.228 411.825 506.188C413.372 507.122 414.492 508.428 415.185 510.108L412.425 511.068C412.025 510.002 411.292 509.162 410.225 508.548C409.185 507.908 407.972 507.588 406.585 507.588C405.225 507.588 404.038 507.895 403.025 508.508C402.038 509.122 401.265 509.988 400.705 511.108C400.172 512.228 399.905 513.548 399.905 515.068C399.905 517.308 400.505 519.108 401.705 520.468C402.905 521.802 404.505 522.468 406.505 522.468C407.865 522.468 409.078 522.162 410.145 521.548C411.212 520.935 411.998 520.108 412.505 519.068L415.225 520.028C414.505 521.682 413.372 522.975 411.825 523.908C410.278 524.842 408.478 525.308 406.425 525.308ZM431.555 525.028L431.315 521.428C430.755 522.655 429.928 523.615 428.835 524.308C427.741 524.975 426.355 525.308 424.675 525.308C423.235 525.308 422.008 525.082 420.995 524.628C419.981 524.175 419.195 523.535 418.635 522.708C418.101 521.855 417.835 520.855 417.835 519.708C417.835 518.028 418.461 516.655 419.715 515.588C420.968 514.495 422.781 513.828 425.155 513.588L431.315 512.908V511.308C431.315 510.188 430.901 509.295 430.075 508.628C429.248 507.935 428.128 507.588 426.715 507.588C425.328 507.588 424.168 507.908 423.235 508.548C422.328 509.188 421.701 510.108 421.355 511.308L418.635 510.348C419.168 508.588 420.141 507.215 421.555 506.228C422.995 505.242 424.741 504.748 426.795 504.748C429.168 504.748 431.008 505.362 432.315 506.588C433.648 507.788 434.315 509.428 434.315 511.508V525.028H431.555ZM431.315 515.468L425.115 516.188C423.781 516.348 422.768 516.722 422.075 517.308C421.381 517.868 421.035 518.615 421.035 519.548C421.035 520.482 421.368 521.228 422.035 521.788C422.728 522.348 423.715 522.628 424.995 522.628C426.461 522.628 427.661 522.335 428.595 521.748C429.528 521.162 430.208 520.375 430.635 519.388C431.088 518.375 431.315 517.282 431.315 516.108V515.468Z" fill="black"/>
<path d="M555.126 497.617H573.486V500.417H558.326V509.977H569.726V512.777H558.326V525.617H555.126V497.617ZM589.706 525.617L589.466 522.017C588.906 523.244 588.079 524.204 586.986 524.897C585.892 525.564 584.506 525.897 582.826 525.897C581.386 525.897 580.159 525.671 579.146 525.217C578.132 524.764 577.346 524.124 576.786 523.297C576.252 522.444 575.986 521.444 575.986 520.297C575.986 518.617 576.612 517.244 577.866 516.177C579.119 515.084 580.932 514.417 583.306 514.177L589.466 513.497V511.897C589.466 510.777 589.052 509.884 588.226 509.217C587.399 508.524 586.279 508.177 584.866 508.177C583.479 508.177 582.319 508.497 581.386 509.137C580.479 509.777 579.852 510.697 579.506 511.897L576.786 510.937C577.319 509.177 578.292 507.804 579.706 506.817C581.146 505.831 582.892 505.337 584.946 505.337C587.319 505.337 589.159 505.951 590.466 507.177C591.799 508.377 592.466 510.017 592.466 512.097V525.617H589.706ZM589.466 516.057L583.266 516.777C581.932 516.937 580.919 517.311 580.226 517.897C579.532 518.457 579.186 519.204 579.186 520.137C579.186 521.071 579.519 521.817 580.186 522.377C580.879 522.937 581.866 523.217 583.146 523.217C584.612 523.217 585.812 522.924 586.746 522.337C587.679 521.751 588.359 520.964 588.786 519.977C589.239 518.964 589.466 517.871 589.466 516.697V516.057ZM597.222 505.617H599.982L600.182 508.497C600.768 507.537 601.555 506.777 602.542 506.217C603.555 505.631 604.755 505.337 606.142 505.337C607.555 505.337 608.835 505.684 609.982 506.377C611.155 507.044 612.062 508.044 612.702 509.377C613.315 508.017 614.248 507.004 615.502 506.337C616.755 505.671 618.142 505.337 619.662 505.337C621.155 505.337 622.475 505.671 623.622 506.337C624.768 506.977 625.662 507.951 626.302 509.257C626.942 510.537 627.262 512.151 627.262 514.097V525.617H624.262V514.457C624.262 512.377 623.808 510.804 622.902 509.737C622.022 508.644 620.755 508.097 619.102 508.097C617.422 508.097 616.088 508.684 615.102 509.857C614.115 511.004 613.622 512.711 613.622 514.977V525.617H610.622V514.457C610.622 512.377 610.195 510.804 609.342 509.737C608.488 508.644 607.235 508.097 605.582 508.097C603.902 508.097 602.582 508.684 601.622 509.857C600.688 511.004 600.222 512.711 600.222 514.977V525.617H597.222V505.617ZM636.944 497.097V499.617L629.464 503.777V501.617L636.944 497.097ZM631.984 505.617H635.184V525.617H631.984V505.617ZM640.223 496.817H643.223V525.617H640.223V496.817ZM648.828 505.617H651.788V525.617H648.828V505.617ZM650.348 501.617C649.735 501.617 649.228 501.417 648.828 501.017C648.428 500.617 648.228 500.124 648.228 499.537C648.228 498.924 648.428 498.417 648.828 498.017C649.228 497.617 649.735 497.417 650.348 497.417C650.908 497.417 651.388 497.617 651.788 498.017C652.215 498.417 652.428 498.924 652.428 499.537C652.428 500.124 652.215 500.617 651.788 501.017C651.388 501.417 650.908 501.617 650.348 501.617ZM669.964 525.617L669.724 522.017C669.164 523.244 668.337 524.204 667.244 524.897C666.151 525.564 664.764 525.897 663.084 525.897C661.644 525.897 660.417 525.671 659.404 525.217C658.391 524.764 657.604 524.124 657.044 523.297C656.511 522.444 656.244 521.444 656.244 520.297C656.244 518.617 656.871 517.244 658.124 516.177C659.377 515.084 661.191 514.417 663.564 514.177L669.724 513.497V511.897C669.724 510.777 669.311 509.884 668.484 509.217C667.657 508.524 666.537 508.177 665.124 508.177C663.737 508.177 662.577 508.497 661.644 509.137C660.737 509.777 660.111 510.697 659.764 511.897L657.044 510.937C657.577 509.177 658.551 507.804 659.964 506.817C661.404 505.831 663.151 505.337 665.204 505.337C667.577 505.337 669.417 505.951 670.724 507.177C672.057 508.377 672.724 510.017 672.724 512.097V525.617H669.964ZM669.724 516.057L663.524 516.777C662.191 516.937 661.177 517.311 660.484 517.897C659.791 518.457 659.444 519.204 659.444 520.137C659.444 521.071 659.777 521.817 660.444 522.377C661.137 522.937 662.124 523.217 663.404 523.217C664.871 523.217 666.071 522.924 667.004 522.337C667.937 521.751 668.617 520.964 669.044 519.977C669.497 518.964 669.724 517.871 669.724 516.697V516.057Z" fill="black"/>
<path d="M745.871 353.971C745.871 351.864 746.231 349.944 746.951 348.211C747.671 346.451 748.671 344.944 749.951 343.691C751.231 342.411 752.725 341.424 754.431 340.731C756.165 340.037 758.031 339.691 760.031 339.691C762.911 339.691 765.458 340.384 767.671 341.771C769.911 343.131 771.591 345.091 772.711 347.651L768.191 348.971C767.605 347.851 766.871 346.944 765.991 346.251C765.138 345.557 764.205 345.051 763.191 344.731C762.178 344.411 761.151 344.251 760.111 344.251C758.405 344.251 756.885 344.664 755.551 345.491C754.218 346.291 753.178 347.424 752.431 348.891C751.711 350.357 751.351 352.051 751.351 353.971C751.351 355.891 751.711 357.584 752.431 359.051C753.178 360.491 754.218 361.624 755.551 362.451C756.885 363.277 758.405 363.691 760.111 363.691C761.178 363.691 762.231 363.531 763.271 363.211C764.338 362.864 765.325 362.291 766.231 361.491C767.138 360.691 767.911 359.624 768.551 358.291L772.991 359.531C771.845 362.437 770.138 364.624 767.871 366.091C765.605 367.531 762.991 368.251 760.031 368.251C758.031 368.251 756.165 367.904 754.431 367.211C752.725 366.517 751.231 365.531 749.951 364.251C748.671 362.971 747.671 361.464 746.951 359.731C746.231 357.971 745.871 356.051 745.871 353.971ZM787.928 367.971L787.528 365.531C786.861 366.357 786.101 367.011 785.248 367.491C784.421 367.971 783.301 368.211 781.888 368.211C780.555 368.211 779.381 367.984 778.368 367.531C777.381 367.051 776.608 366.397 776.048 365.571C775.488 364.717 775.208 363.717 775.208 362.571C775.208 360.891 775.808 359.504 777.008 358.411C778.235 357.291 780.075 356.584 782.528 356.291L787.528 355.731V354.331C787.528 353.771 787.275 353.251 786.768 352.771C786.261 352.291 785.461 352.051 784.368 352.051C783.408 352.051 782.568 352.291 781.848 352.771C781.155 353.224 780.688 353.917 780.448 354.851L776.048 353.251C776.581 351.464 777.595 350.091 779.088 349.131C780.581 348.171 782.421 347.691 784.608 347.691C787.275 347.691 789.275 348.357 790.608 349.691C791.968 350.997 792.648 352.731 792.648 354.891V367.971H787.928ZM787.528 359.291L783.208 359.851C782.328 359.957 781.661 360.224 781.208 360.651C780.755 361.051 780.528 361.544 780.528 362.131C780.528 362.691 780.755 363.171 781.208 363.571C781.661 363.944 782.301 364.131 783.128 364.131C784.061 364.131 784.848 363.957 785.488 363.611C786.155 363.264 786.661 362.757 787.008 362.091C787.355 361.424 787.528 360.597 787.528 359.611V359.291ZM810.763 350.971L810.123 351.051V339.171H815.243V367.971H810.603L810.283 365.491C809.643 366.237 808.79 366.891 807.723 367.451C806.683 367.984 805.47 368.251 804.083 368.251C802.35 368.251 800.817 367.824 799.483 366.971C798.15 366.117 797.11 364.931 796.363 363.411C795.617 361.864 795.243 360.051 795.243 357.971C795.243 355.891 795.617 354.077 796.363 352.531C797.11 350.984 798.15 349.797 799.483 348.971C800.817 348.117 802.35 347.691 804.083 347.691C805.657 347.691 807.003 348.011 808.123 348.651C809.27 349.291 810.15 350.064 810.763 350.971ZM800.763 357.971C800.763 359.651 801.19 361.011 802.043 362.051C802.897 363.064 804.017 363.571 805.403 363.571C806.257 363.571 807.03 363.357 807.723 362.931C808.443 362.477 809.017 361.837 809.443 361.011C809.897 360.184 810.123 359.171 810.123 357.971C810.123 356.771 809.897 355.757 809.443 354.931C809.017 354.104 808.443 353.477 807.723 353.051C807.03 352.597 806.257 352.371 805.403 352.371C804.017 352.371 802.897 352.891 802.043 353.931C801.19 354.944 800.763 356.291 800.763 357.971ZM836.613 367.971H831.933L831.573 365.891C830.933 366.637 830.146 367.224 829.213 367.651C828.306 368.051 827.333 368.251 826.293 368.251C824.746 368.251 823.413 367.917 822.293 367.251C821.173 366.584 820.306 365.624 819.693 364.371C819.079 363.091 818.773 361.517 818.773 359.651V347.971H823.933V359.011C823.933 360.531 824.226 361.691 824.813 362.491C825.426 363.264 826.359 363.651 827.613 363.651C828.839 363.651 829.786 363.251 830.453 362.451C831.146 361.651 831.493 360.491 831.493 358.971V347.971H836.613V367.971Z" fill="black"/>
<defs>
<filter id="filter0_f_31839_8383" x="22.2734" y="132.928" width="349.543" height="497.899" filterUnits="userSpaceOnUse" color-interpolation-filters="sRGB">
<feFlood flood-opacity="0" result="BackgroundImageFix"/>
<feBlend mode="normal" in="SourceGraphic" in2="BackgroundImageFix" result="shape"/>
<feGaussianBlur stdDeviation="50" result="effect1_foregroundBlur_31839_8383"/>
</filter>
<filter id="filter1_f_31839_8383" x="206.871" y="298.824" width="336.727" height="425.858" filterUnits="userSpaceOnUse" color-interpolation-filters="sRGB">
<feFlood flood-opacity="0" result="BackgroundImageFix"/>
<feBlend mode="normal" in="SourceGraphic" in2="BackgroundImageFix" result="shape"/>
<feGaussianBlur stdDeviation="50" result="effect1_foregroundBlur_31839_8383"/>
</filter>
<filter id="filter2_f_31839_8383" x="446.852" y="309.505" width="330.527" height="381.438" filterUnits="userSpaceOnUse" color-interpolation-filters="sRGB">
<feFlood flood-opacity="0" result="BackgroundImageFix"/>
<feBlend mode="normal" in="SourceGraphic" in2="BackgroundImageFix" result="shape"/>
<feGaussianBlur stdDeviation="50" result="effect1_foregroundBlur_31839_8383"/>
</filter>
<filter id="filter3_f_31839_8383" x="303.894" y="336.923" width="141.193" height="91.3131" filterUnits="userSpaceOnUse" color-interpolation-filters="sRGB">
<feFlood flood-opacity="0" result="BackgroundImageFix"/>
<feBlend mode="normal" in="SourceGraphic" in2="BackgroundImageFix" result="shape"/>
<feGaussianBlur stdDeviation="1.76993" result="effect1_foregroundBlur_31839_8383"/>
</filter>
<filter id="filter5_f_31839_8383" x="540.814" y="369.314" width="143.985" height="86.9776" filterUnits="userSpaceOnUse" color-interpolation-filters="sRGB">
<feFlood flood-opacity="0" result="BackgroundImageFix"/>
<feBlend mode="normal" in="SourceGraphic" in2="BackgroundImageFix" result="shape"/>
<feGaussianBlur stdDeviation="2.28053" result="effect1_foregroundBlur_31839_8383"/>
</filter>
<filter id="filter6_f_31839_8383" x="626.297" y="118.63" width="347.434" height="458.987" filterUnits="userSpaceOnUse" color-interpolation-filters="sRGB">
<feFlood flood-opacity="0" result="BackgroundImageFix"/>
<feBlend mode="normal" in="SourceGraphic" in2="BackgroundImageFix" result="shape"/>
<feGaussianBlur stdDeviation="50" result="effect1_foregroundBlur_31839_8383"/>
</filter>
<filter id="filter7_f_31839_8383" x="723.75" y="221.925" width="33.7416" height="25.8939" filterUnits="userSpaceOnUse" color-interpolation-filters="sRGB">
<feFlood flood-opacity="0" result="BackgroundImageFix"/>
<feBlend mode="normal" in="SourceGraphic" in2="BackgroundImageFix" result="shape"/>
<feGaussianBlur stdDeviation="1.39437" result="effect1_foregroundBlur_31839_8383"/>
</filter>
<filter id="filter8_f_31839_8383" x="730.555" y="225.784" width="23.0306" height="18.1693" filterUnits="userSpaceOnUse" color-interpolation-filters="sRGB">
<feFlood flood-opacity="0" result="BackgroundImageFix"/>
<feBlend mode="normal" in="SourceGraphic" in2="BackgroundImageFix" result="shape"/>
<feGaussianBlur stdDeviation="1.39437" result="effect1_foregroundBlur_31839_8383"/>
</filter>
<filter id="filter9_f_31839_8383" x="793.118" y="181.882" width="40.7689" height="21.8353" filterUnits="userSpaceOnUse" color-interpolation-filters="sRGB">
<feFlood flood-opacity="0" result="BackgroundImageFix"/>
<feBlend mode="normal" in="SourceGraphic" in2="BackgroundImageFix" result="shape"/>
<feGaussianBlur stdDeviation="1.39437" result="effect1_foregroundBlur_31839_8383"/>
</filter>
<filter id="filter10_f_31839_8383" x="799.664" y="185.305" width="27.3861" height="15.6537" filterUnits="userSpaceOnUse" color-interpolation-filters="sRGB">
<feFlood flood-opacity="0" result="BackgroundImageFix"/>
<feBlend mode="normal" in="SourceGraphic" in2="BackgroundImageFix" result="shape"/>
<feGaussianBlur stdDeviation="1.39437" result="effect1_foregroundBlur_31839_8383"/>
</filter>
<filter id="filter11_f_31839_8383" x="740.321" y="191.681" width="137.331" height="81.5208" filterUnits="userSpaceOnUse" color-interpolation-filters="sRGB">
<feFlood flood-opacity="0" result="BackgroundImageFix"/>
<feBlend mode="normal" in="SourceGraphic" in2="BackgroundImageFix" result="shape"/>
<feGaussianBlur stdDeviation="1.39437" result="effect1_foregroundBlur_31839_8383"/>
</filter>
<filter id="filter12_f_31839_8383" x="791.348" y="221.413" width="32.8939" height="21.3451" filterUnits="userSpaceOnUse" color-interpolation-filters="sRGB">
<feFlood flood-opacity="0" result="BackgroundImageFix"/>
<feBlend mode="normal" in="SourceGraphic" in2="BackgroundImageFix" result="shape"/>
<feGaussianBlur stdDeviation="1.39437" result="effect1_foregroundBlur_31839_8383"/>
</filter>
<filter id="filter13_f_31839_8383" x="767.223" y="230.651" width="19.2689" height="13.4818" filterUnits="userSpaceOnUse" color-interpolation-filters="sRGB">
<feFlood flood-opacity="0" result="BackgroundImageFix"/>
<feBlend mode="normal" in="SourceGraphic" in2="BackgroundImageFix" result="shape"/>
<feGaussianBlur stdDeviation="1.39437" result="effect1_foregroundBlur_31839_8383"/>
</filter>
<filter id="filter14_f_31839_8383" x="807.25" y="207.541" width="19.2689" height="13.4818" filterUnits="userSpaceOnUse" color-interpolation-filters="sRGB">
<feFlood flood-opacity="0" result="BackgroundImageFix"/>
<feBlend mode="normal" in="SourceGraphic" in2="BackgroundImageFix" result="shape"/>
<feGaussianBlur stdDeviation="1.39437" result="effect1_foregroundBlur_31839_8383"/>
</filter>
<filter id="filter15_f_31839_8383" x="675.825" y="115.42" width="246.389" height="214.067" filterUnits="userSpaceOnUse" color-interpolation-filters="sRGB">
<feFlood flood-opacity="0" result="BackgroundImageFix"/>
<feBlend mode="normal" in="SourceGraphic" in2="BackgroundImageFix" result="shape"/>
<feGaussianBlur stdDeviation="32.4273" result="effect1_foregroundBlur_31839_8383"/>
</filter>
<filter id="filter16_f_31839_8383" x="103.805" y="182.469" width="186.477" height="123.373" filterUnits="userSpaceOnUse" color-interpolation-filters="sRGB">
<feFlood flood-opacity="0" result="BackgroundImageFix"/>
<feBlend mode="normal" in="SourceGraphic" in2="BackgroundImageFix" result="shape"/>
<feGaussianBlur stdDeviation="9.29692" result="effect1_foregroundBlur_31839_8383"/>
</filter>
<filter id="filter17_f_31839_8383" x="-81.975" y="-0.000350952" width="558.063" height="480.983" filterUnits="userSpaceOnUse" color-interpolation-filters="sRGB">
<feFlood flood-opacity="0" result="BackgroundImageFix"/>
<feBlend mode="normal" in="SourceGraphic" in2="BackgroundImageFix" result="shape"/>
<feGaussianBlur stdDeviation="93.3742" result="effect1_foregroundBlur_31839_8383"/>
</filter>
<filter id="filter18_f_31839_8383" x="121.114" y="197.799" width="151.858" height="88.7546" filterUnits="userSpaceOnUse" color-interpolation-filters="sRGB">
<feFlood flood-opacity="0" result="BackgroundImageFix"/>
<feBlend mode="normal" in="SourceGraphic" in2="BackgroundImageFix" result="shape"/>
<feGaussianBlur stdDeviation="0.642274" result="effect1_foregroundBlur_31839_8383"/>
</filter>
<filter id="filter19_f_31839_8383" x="119.54" y="192.835" width="155.005" height="91.9018" filterUnits="userSpaceOnUse" color-interpolation-filters="sRGB">
<feFlood flood-opacity="0" result="BackgroundImageFix"/>
<feBlend mode="normal" in="SourceGraphic" in2="BackgroundImageFix" result="shape"/>
<feGaussianBlur stdDeviation="1.42906" result="effect1_foregroundBlur_31839_8383"/>
</filter>
<linearGradient id="paint0_linear_31839_8383" x1="343.713" y1="360.641" x2="391.048" y2="442.635" gradientUnits="userSpaceOnUse">
<stop stop-color="white" stop-opacity="0.2"/>
<stop offset="1" stop-color="#FF7F78"/>
</linearGradient>
<linearGradient id="paint1_linear_31839_8383" x1="309.693" y1="372.018" x2="338.129" y2="458.418" gradientUnits="userSpaceOnUse">
<stop stop-color="#F9B4AE"/>
<stop offset="1" stop-color="#F9746E"/>
</linearGradient>
<linearGradient id="paint2_linear_31839_8383" x1="577.212" y1="379.762" x2="612.373" y2="441.197" gradientUnits="userSpaceOnUse">
<stop stop-color="white" stop-opacity="0.2"/>
<stop offset="1" stop-color="#4497C3"/>
</linearGradient>
<linearGradient id="paint3_linear_31839_8383" x1="564.35" y1="373.963" x2="583.693" y2="444.243" gradientUnits="userSpaceOnUse">
<stop stop-color="#BBE2FF"/>
<stop offset="1" stop-color="#3A8DBB"/>
</linearGradient>
<linearGradient id="paint4_linear_31839_8383" x1="805.987" y1="215.407" x2="835.898" y2="268.978" gradientUnits="userSpaceOnUse">
<stop stop-color="white" stop-opacity="0.2"/>
<stop offset="1" stop-color="#BB8950"/>
</linearGradient>
<linearGradient id="paint5_linear_31839_8383" x1="731.652" y1="208.976" x2="794.024" y2="289.725" gradientUnits="userSpaceOnUse">
<stop stop-color="#FFDFBA"/>
<stop offset="1" stop-color="#CD995B"/>
</linearGradient>
<linearGradient id="paint6_linear_31839_8383" x1="144.303" y1="204.384" x2="198.984" y2="299.518" gradientUnits="userSpaceOnUse">
<stop stop-color="white" stop-opacity="0.11"/>
<stop offset="1" stop-color="#FCB346" stop-opacity="0"/>
</linearGradient>
<linearGradient id="paint7_linear_31839_8383" x1="137.52" y1="200.984" x2="165.904" y2="290.672" gradientUnits="userSpaceOnUse">
<stop stop-color="#FFE5A7"/>
<stop offset="1" stop-color="#FAA839"/>
</linearGradient>
</defs>
</svg>
